<?xml version="1.0" standalone="no"?>
<!DOCTYPE svg PUBLIC "-//W3C//DTD SVG 20010904//EN"
 "http://www.w3.org/TR/2001/REC-SVG-20010904/DTD/svg10.dtd">
<svg version="1.0" xmlns="http://www.w3.org/2000/svg"
 width="1470.000000pt" height="360.000000pt" viewBox="0 0 1470.000000 360.000000"
 preserveAspectRatio="xMidYMid meet">

<g transform="translate(0.000000,360.000000) scale(0.100000,-0.100000)"
fill="#000000" stroke="none">
<path d="M13440 2909 c-75 -15 -163 -64 -219 -124 -196 -207 -138 -537 117
-662 73 -37 80 -38 182 -38 99 0 109 2 173 33 86 43 156 113 199 199 31 64 33
73 33 178 0 99 -3 116 -28 169 -59 126 -161 212 -287 240 -75 17 -102 18 -170
5z m204 -80 c73 -27 149 -97 189 -173 29 -56 32 -69 32 -156 0 -88 -3 -101
-33 -162 -38 -77 -92 -130 -171 -167 -48 -22 -70 -26 -146 -26 -80 0 -97 3
-148 30 -76 38 -149 118 -177 193 -31 83 -26 205 13 284 44 89 127 161 217
189 52 15 168 10 224 -12z"/>
<path d="M13392 2498 l3 -193 27 -3 c27 -3 27 -3 30 70 l3 73 36 3 c42 4 50
-3 102 -87 29 -48 42 -61 62 -61 32 0 31 6 -4 62 -56 88 -56 86 -16 102 66 28
84 135 32 184 -36 33 -72 42 -178 42 l-99 0 2 -192z m224 116 c20 -19 24 -31
20 -52 -12 -47 -40 -62 -117 -62 l-69 0 0 63 c0 35 3 67 7 70 3 4 35 7 70 7
55 0 67 -3 89 -26z"/>
<path d="M3768 2254 c-128 -31 -236 -115 -286 -222 -34 -75 -43 -214 -18 -290
50 -148 138 -200 475 -277 240 -54 291 -86 291 -183 0 -95 -87 -154 -236 -160
-107 -5 -185 14 -235 55 -34 29 -68 94 -69 131 0 22 -2 22 -131 22 l-132 0 5
-63 c10 -120 96 -240 217 -302 176 -88 487 -88 640 2 147 86 224 239 201 403
-11 79 -35 129 -87 182 -62 63 -132 92 -347 145 -317 77 -345 91 -353 180 -10
99 77 166 216 167 145 2 237 -50 263 -147 l12 -47 129 0 130 0 -7 57 c-19 165
-150 299 -341 348 -74 19 -258 19 -337 -1z"/>
<path d="M5685 2264 c-11 -2 -45 -9 -75 -15 -205 -40 -385 -224 -445 -454 -22
-83 -30 -273 -16 -365 41 -263 202 -454 431 -515 31 -8 100 -15 156 -15 159 0
247 33 351 133 46 44 63 55 63 42 0 -10 5 -47 11 -82 l11 -63 89 0 89 0 0 350
0 350 -270 0 -270 0 0 -110 0 -110 150 0 150 0 -6 -27 c-24 -107 -116 -211
-212 -239 -76 -22 -200 -15 -264 15 -146 70 -208 193 -208 409 0 169 35 285
111 367 65 70 126 98 230 103 118 6 176 -14 244 -82 29 -29 55 -66 61 -86 l10
-35 136 -3 136 -3 -14 63 c-38 163 -183 304 -364 354 -55 15 -247 27 -285 18z"/>
<path d="M12121 2250 c-41 -11 -93 -31 -115 -44 -59 -35 -133 -117 -164 -184
-24 -50 -27 -70 -27 -157 0 -87 4 -107 26 -156 33 -69 85 -121 158 -156 31
-14 152 -50 268 -79 117 -29 232 -63 255 -76 106 -58 96 -192 -18 -249 -43
-21 -63 -24 -169 -24 -110 0 -125 2 -170 26 -56 28 -91 72 -107 136 l-10 43
-131 0 -130 0 7 -55 c22 -186 154 -316 367 -361 105 -23 321 -15 403 15 85 30
135 62 190 120 97 104 129 242 88 377 -45 148 -127 199 -439 275 -252 61 -308
84 -329 135 -34 81 16 167 112 195 67 19 180 17 237 -5 60 -23 115 -83 123
-136 l7 -40 133 0 c74 0 134 3 134 8 -1 32 -33 148 -50 182 -49 96 -174 185
-301 215 -91 21 -256 19 -348 -5z"/>
<path d="M970 1585 l0 -656 343 3 c332 3 344 4 402 27 126 50 206 126 271 256
107 216 113 547 12 752 -61 124 -177 220 -309 254 -26 6 -181 13 -381 16
l-338 5 0 -657z m672 393 c106 -49 150 -162 149 -383 0 -183 -38 -296 -125
-372 -62 -55 -99 -63 -280 -63 l-156 0 0 426 0 426 178 -4 c167 -3 180 -5 234
-30z"/>
<path d="M2290 1585 l0 -655 495 0 495 0 0 115 0 115 -362 2 -363 3 -3 168 -2
167 320 0 321 0 -3 113 -3 112 -317 3 -318 2 0 135 0 135 345 0 345 0 0 120 0
120 -475 0 -475 0 0 -655z"/>
<path d="M4680 1585 l0 -655 135 0 135 0 -2 653 -3 652 -132 3 -133 3 0 -656z"/>
<path d="M6610 1585 l0 -655 125 0 125 0 2 462 3 461 265 -461 265 -462 138 0
137 0 -2 653 -3 652 -125 0 -125 0 -5 -447 -5 -448 -255 448 -255 447 -143 3
-142 3 0 -656z"/>
<path d="M7920 1585 l0 -655 135 0 135 0 0 290 0 290 255 0 255 0 0 -290 0
-290 135 0 135 0 0 655 0 655 -135 0 -135 0 0 -250 0 -250 -255 0 -255 0 0
250 0 250 -135 0 -135 0 0 -655z"/>
<path d="M9599 2213 c-12 -30 -330 -921 -410 -1145 l-48 -138 142 0 142 0 45
133 45 132 241 3 240 2 42 -135 43 -135 144 0 c110 0 145 3 144 13 0 6 -102
300 -227 652 l-228 640 -152 3 -152 3 -11 -28z m241 -538 c40 -126 75 -236 77
-242 4 -10 -32 -13 -162 -13 -134 0 -166 3 -162 13 3 7 40 122 83 255 43 136
81 237 85 230 4 -7 40 -116 79 -243z"/>
<path d="M10547 2233 c-12 -11 -8 -845 4 -929 6 -43 17 -99 26 -124 39 -116
138 -212 261 -251 84 -27 279 -37 377 -20 144 25 255 100 314 211 56 105 61
160 61 666 l0 455 -137 -3 -138 -3 -5 -475 c-5 -473 -5 -475 -28 -522 -38 -77
-99 -108 -211 -108 -121 0 -190 37 -227 123 -18 39 -19 80 -22 515 l-3 472
-133 0 c-73 0 -136 -3 -139 -7z"/>
</g>
</svg>
